Coordinates
version=1
nRows=32
nColumns=22
inDegrees=yes

Units are S.I. units (second, meters, Newtons, ...)
If the header above contains a line with 'inDegrees', this indicates whether rotational values are in degrees (yes) or radians (no).

endheader
time	pelvis_tilt	pelvis_list	pelvis_rotation	pelvis_tx	pelvis_ty	pelvis_tz	hip_flexion_r	hip_adduction_r	hip_rotation_r	knee_angle_r	ankle_angle_r	subtalar_angle_r	hip_flexion_l	hip_adduction_l	hip_rotation_l	knee_angle_l	ankle_angle_l	subtalar_angle_l	lumbar_extension	lumbar_bending	lumbar_rotation
      5.05000000	     -9.10670782	      0.50778652	    -50.19561853	      0.92330042	      0.82915702	      0.91962599	     -9.68830512	      3.98245835	     12.06694711	    -13.34534497	     25.76576044	     -5.07058803	     35.51090040	    -14.95316755	      1.09088523	    -15.15934974	      2.13027184	      5.39547873	      1.11937954	      6.34125806	     17.96647923
      5.06000000	     -9.33478299	      0.83432113	    -50.46868624	      0.93033334	      0.82832212	      0.92274441	     -9.58304983	      3.60271817	     12.25974828	    -13.59765182	     25.36368045	     -4.59279453	     35.80275058	    -14.85599446	      0.85827801	    -15.75933416	      0.69836224	      5.35113249	      1.47546685	      6.25873034	     17.99531074
      5.07000000	     -9.48098070	      1.18300749	    -50.70361596	      0.93746295	      0.82780206	      0.92578264	     -9.48314463	      3.15278080	     12.43183265	    -13.89506445	     24.90154958	     -4.18073922	     36.08658311	    -14.67114981	      0.59664987	    -16.43467896	     -0.70818150	      5.32371966	      1.78103903	      6.08734787	     18.01832181
      5.08000000	     -9.55186999	      1.54619536	    -50.88425098	      0.94468897	      0.82761381	      0.92876065	     -9.38572719	      2.64960016	     12.56724322	    -14.24519828	     24.33261304	     -3.72962237	     36.35007558	    -14.39743048	      0.34714788	    -17.16738656	     -1.95649229	      5.30820633	      2.04002326	      5.83285774	     17.99006108
      5.09000000	     -9.54952475	      1.91070109	    -51.00721349	      0.95201938	      0.82777381	      0.93168178	     -9.30768794	      2.10273718	     12.65890956	    -14.63203093	     23.66208238	     -3.24737274	     36.56464623	    -14.03767134	      0.12204930	    -17.92497627	     -2.94225826	      5.30538934	      2.24467396	      5.50428247	     17.93902552
      5.10000000	     -9.48496717	      2.26278075	    -51.07491457	      0.95942792	      0.82828603	      0.93454932	     -9.25272373	      1.53180388	     12.71584331	    -15.05320255	     22.88348785	     -2.74835637	     36.71442055	    -13.60637141	     -0.06764224	    -18.68305824	     -3.60727329	      5.30467961	      2.38812917	      5.12266673	     17.85364573
      5.11000000	     -9.38004369	      2.60193044	    -51.09050060	      0.96689636	      0.82912933	      0.93736741	     -9.21153351	      0.95559371	     12.75514869	    -15.49780447	     21.98790506	     -2.25569802	     36.79398087	    -13.11561081	     -0.20762123	    -19.40163403	     -3.93642063	      5.28756741	      2.48884412	      4.70613886	     17.73547662
      5.12000000	     -9.25486819	      2.91452779	    -51.05937244	      0.97440128	      0.83027555	      0.94012045	     -9.17385363	      0.39862812	     12.77459492	    -15.97624207	     20.98386461	     -1.75182788	     36.79718597	    -12.58820074	     -0.29625055	    -20.05632683	     -3.96182801	      5.23255910	      2.54660565	      4.28824211	     17.59483509
      5.13000000	     -9.13692469	      3.19553778	    -50.99265152	      0.98190773	      0.83168640	      0.94282880	     -9.13456152	     -0.11327591	     12.79094890	    -16.46667731	     19.85530251	     -1.25263547	     36.73073698	    -12.05337467	     -0.33500219	    -20.62899883	     -3.74571894	      5.12894625	      2.57921604	      3.89521595	     17.44503684
      5.14000000	     -9.04709738	      3.43959389	    -50.90332462	      0.98938721	      0.83331317	      0.94549593	     -9.07855722	     -0.56073059	     12.81169194	    -16.97540522	     18.60717451	     -0.77249788	     36.59441499	    -11.53923018	     -0.34334906	    -21.09354559	     -3.36881297	      4.97645081	      2.59761108	      3.55384981	     17.29675597
      5.15000000	     -9.00471445	      3.64565621	    -50.80414111	      0.99682428	      0.83510406	      0.94813971	     -8.99943719	     -0.93008190	     12.84889580	    -17.48733016	     17.24292671	     -0.32263146	     36.39593791	    -11.07255206	     -0.35033342	    -21.43687873	     -2.90003937	      4.78127544	      2.61854514	      3.28587278	     17.15339427
      5.16000000	     -9.01649312	      3.80649847	    -50.71405738	      1.00417792	      0.83701244	      0.95076883	     -8.88073626	     -1.21309347	     12.88670508	    -18.03032366	     15.79062817	      0.11279985	     36.13259182	    -10.67701922	     -0.36660861	    -21.65544805	     -2.39153027	      4.54043011	      2.64042279	      3.10225936	     17.05791266
      5.17000000	     -9.08696940	      3.93042532	    -50.63540352	      1.01147443	      0.83898698	      0.95338465	     -8.72856291	     -1.41755608	     12.92569396	    -18.57216358	     14.26001142	      0.51277822	     35.81578225	    -10.35495330	     -0.42008733	    -21.75016733	     -1.87445146	      4.27158053	      2.67946708	      3.00917793	     16.98373408
      5.18000000	     -9.21097876	      4.02110216	    -50.57277554	      1.01869642	      0.84098253	      0.95600734	     -8.54034524	     -1.55005213	     12.96076474	    -19.12212394	     12.67857298	      0.87657751	     35.45490652	    -10.10792665	     -0.51554583	    -21.74009047	     -1.36682193	      3.98726928	      2.73863442	      2.99529500	     16.93568852
      5.19000000	     -9.38270126	      4.10677366	    -50.52558189	      1.02584882	      0.84294195	      0.95865204	     -8.30842166	     -1.63520998	     12.99385335	    -19.66120344	     11.04546494	      1.08174955	     35.08180035	     -9.91851615	     -0.67115351	    -21.65136889	     -0.89699373	      3.81700206	      2.84398103	      3.03408776	     16.90098639
      5.20000000	     -9.59377837	      4.13915795	    -50.50020467	      1.03290288	      0.84489205	      0.96130657	     -8.05691264	     -1.64806761	     13.01373895	    -20.22293247	      9.40925215	      1.34349554	     34.65712411	     -9.81026685	     -0.84155539	    -21.48878346	     -0.42076777	      3.57678751	      2.94057329	      3.15619790	     16.88598173
      5.21000000	     -9.83178676	      4.12873102	    -50.48960594	      1.03982265	      0.84679199	      0.96394496	     -7.77002187	     -1.60080850	     13.01957893	    -20.84310506	      7.81926945	      1.71097201	     34.20548676	     -9.76064200	     -0.98109071	    -21.29049253	      0.07090418	      3.21951117	      3.02418581	      3.33552570	     16.89985849
      5.22000000	    -10.05601064	      4.16685966	    -50.47526559	      1.04670061	      0.84856830	      0.96663557	     -7.44022715	     -1.59328921	     12.97460617	    -21.46499974	      6.24115814	      1.89899007	     33.77724514	     -9.68289414	     -1.18806944	    -21.08494941	      0.50556024	      3.05547466	      3.16721182	      3.46553378	     16.87623225
      5.23000000	    -10.30121013	      4.15575815	    -50.46045684	      1.05341570	      0.85026341	      0.96928392	     -7.08024226	     -1.51823482	     12.93358491	    -22.15702781	      4.71940066	      2.16499126	     33.34598469	     -9.65456254	     -1.31969402	    -20.89171977	      0.97662410	      2.81568255	      3.28018544	      3.65011581	     16.86678121
      5.24000000	    -10.49149519	      4.18103120	    -50.42790523	      1.06009094	      0.85185191	      0.97196976	     -6.70419125	     -1.50529727	     12.82171566	    -22.88113865	      3.25044484	      2.30804631	     32.90818601	     -9.56262122	     -1.48565050	    -20.70047462	      1.40989568	      2.71329773	      3.40973276	      3.75277466	     16.81044190
      5.25000000	    -10.67465701	      4.18127654	    -50.38025503	      1.06663175	      0.85334169	      0.97465408	     -6.31045193	     -1.46060182	     12.70901547	    -23.66940263	      1.83163431	      2.47071492	     32.47464574	     -9.47910057	     -1.59363028	    -20.54012373	      1.85553941	      2.59279341	      3.51963124	      3.85862906	     16.73262322
      5.26000000	    -10.82488334	      4.17388549	    -50.31345588	      1.07307431	      0.85473388	      0.97732568	     -5.89952409	     -1.42183073	     12.56725455	    -24.53201026	      0.47892447	      2.62373703	     32.03378373	     -9.36914668	     -1.66539783	    -20.39956314	      2.30102186	      2.47805855	      3.60948093	      3.93471472	     16.62805493
      5.27000000	    -10.97542436	      4.15409352	    -50.22397639	      1.07940820	      0.85600275	      0.97997015	     -5.44904696	     -1.35755836	     12.40883958	    -25.47561499	     -0.82153155	      2.82912621	     31.61011787	     -9.25821571	     -1.68127402	    -20.28032704	      2.74388782	      2.27870088	      3.69692672	      4.01519842	     16.49221647
      5.28000000	    -11.03533348	      4.12526467	    -50.14111522	      1.08567271	      0.85725270	      0.98264763	     -5.03535851	     -1.34991216	     12.26133961	    -26.47344683	     -2.10830358	      2.92052812	     31.12353336	     -9.09287112	     -1.73167547	    -20.18235656	      3.19192025	      2.21238836	      3.72156014	      4.01569846	     16.35843689
      5.29000000	    -11.11004274	      4.08320736	    -50.04275645	      1.09182107	      0.85838469	      0.98526842	     -4.56949675	     -1.30530527	     12.12255358	    -27.55014606	     -3.37615910	      3.06909239	     30.66383841	     -8.93941078	     -1.72913926	    -20.10321104	      3.62377110	      2.01255059	      3.75000994	      4.03859064	     16.20432751
      5.30000000	    -11.11940047	      4.01335954	    -49.96456483	      1.09787804	      0.85950879	      0.98790259	     -4.13405677	     -1.28310571	     12.02970103	    -28.67654502	     -4.64171352	      3.16546004	     30.14156116	     -8.76890214	     -1.76174426	    -20.03962467	      4.08150599	      1.94504372	      3.71082782	      4.02436959	     16.07512869
      5.31000000	    -11.12837995	      3.93990285	    -49.89215962	      1.10379564	      0.86053823	      0.99047963	     -3.63811464	     -1.24265478	     11.97163147	    -29.89053430	     -5.87817646	      3.33643895	     29.63102260	     -8.60574716	     -1.79184679	    -19.98104042	      4.50947638	      1.74225131	      3.66860502	      4.01505038	     15.95238412
      5.32000000	    -11.08909673	      3.83461777	    -49.82411573	      1.10961520	      0.86154480	      0.99300192	     -3.15630708	     -1.20393799	     11.95124920	    -31.15704869	     -7.08013923	      3.45650005	     29.08164161	     -8.42937034	     -1.81102106	    -19.95220781	      4.97469583	      1.65700392	      3.56160972	      3.98926968	     15.85934346
      5.33000000	    -11.02650754	      3.74835889	    -49.78442339	      1.11525755	      0.86246908	      0.99548946	     -2.59215933	     -1.17989148	     11.96720300	    -32.53617899	     -8.15310223	      3.66743349	     28.52791676	     -8.24341575	     -1.88638384	    -19.90753585	      5.39111032	      1.41694618	      3.45270914	      3.93050878	     15.80009268
      5.34000000	    -10.92271601	      3.64110480	    -49.73224372	      1.12083355	      0.86336177	      0.99789873	     -2.02995857	     -1.16475010	     11.97146389	    -33.95152780	     -9.09597355	      3.86490580	     27.93921908	     -8.03238972	     -1.93784059	    -19.86665066	      5.84534299	      1.21563483	      3.29736465	      3.85739520	     15.74624018
      5.35000000	    -10.77739080	      3.54325522	    -49.68893555	      1.12629202	      0.86420883	      1.00025058	     -1.42173754	     -1.18534098	     11.94355436	    -35.42775853	     -9.81966846	      4.02032848	     27.33025968	     -7.79295768	     -2.03223524	    -19.81633402	      6.24930748	      1.08770871	      3.12055526	      3.74683307	     15.71495541
      5.36000000	    -10.58140260	      3.45974463	    -49.63866237	      1.13169062	      0.86500454	      1.00252478	     -0.78464210	     -1.26715445	     11.84800034	    -36.92945216	    -10.22104116	      4.21029517	     26.69125786	     -7.50027215	     -2.13023261	    -19.74159165	      6.65133296	      0.92731734	      2.92464013	      3.59059191	     15.68955298
